<svg xmlns="http://www.w3.org/2000/svg" xmlns:xlink="http://www.w3.org/1999/xlink" width="170" zoomAndPan="magnify" viewBox="0 0 127.5 127.499994" height="170" preserveAspectRatio="xMidYMid meet" version="1.0"><defs><g/><clipPath id="53b096e6c7"><path d="M 0 0 L 121 0 L 121 127 L 0 127 Z M 0 0 " clip-rule="nonzero"/></clipPath></defs><g clip-path="url(#53b096e6c7)"><g fill="#ffffff" fill-opacity="1"><g transform="translate(15.275266, 112.728751)"><g><path d="M 8.890625 -1.804688 C 11.753906 8.746094 20.875 14.070312 32.109375 11.019531 L 55.027344 4.796875 C 66.375 1.71875 71.550781 -7.484375 68.6875 -18.035156 L 50.082031 -86.570312 C 47.125 -97.460938 38.097656 -102.441406 26.753906 -99.363281 L 3.832031 -93.140625 C -7.398438 -90.089844 -12.667969 -81.230469 -9.714844 -70.335938 Z M 16.417969 -71.460938 C 15.09375 -76.339844 16.695312 -77.628906 19.191406 -78.304688 L 21.003906 -78.796875 C 23.613281 -79.507812 25.644531 -79.203125 26.96875 -74.324219 L 42.554688 -16.914062 C 43.820312 -12.261719 42.28125 -10.746094 39.671875 -10.039062 L 37.855469 -9.546875 C 35.359375 -8.867188 33.265625 -9.394531 32.003906 -14.046875 Z M 77.695312 -109.171875 C 77.171875 -111.097656 75.179688 -112.144531 73.136719 -111.589844 L 55.890625 -106.90625 C 53.851562 -106.351562 52.660156 -104.445312 53.183594 -102.519531 L 79.613281 -5.164062 C 80.136719 -3.234375 82.125 -2.191406 84.167969 -2.746094 L 101.414062 -7.429688 C 103.457031 -7.984375 104.644531 -9.890625 104.121094 -11.816406 Z M 77.695312 -109.171875 "/></g></g></g></g></svg>