<svg xmlns="http://www.w3.org/2000/svg" xmlns:xlink="http://www.w3.org/1999/xlink" width="600" zoomAndPan="magnify" viewBox="0 0 450 165.000002" height="220" preserveAspectRatio="xMidYMid meet" version="1.0"><defs><g/><clipPath id="9d2243600e"><path d="M 66 18 L 352 18 L 352 148 L 66 148 Z M 66 18 " clip-rule="nonzero"/></clipPath><clipPath id="ba91d4cdba"><path d="M 52.21875 64.777344 L 344.945312 -5.03125 L 369.605469 98.371094 L 76.878906 168.183594 Z M 52.21875 64.777344 " clip-rule="nonzero"/></clipPath><clipPath id="9215302fe1"><path d="M 52.21875 64.777344 L 344.945312 -5.03125 L 369.605469 98.371094 L 76.878906 168.183594 Z M 52.21875 64.777344 " clip-rule="nonzero"/></clipPath><clipPath id="b348d1e153"><path d="M 52.21875 64.777344 L 344.945312 -5.03125 L 369.605469 98.371094 L 76.878906 168.183594 Z M 52.21875 64.777344 " clip-rule="nonzero"/></clipPath></defs><g clip-path="url(#9d2243600e)"><g clip-path="url(#ba91d4cdba)"><g clip-path="url(#9215302fe1)"><g clip-path="url(#b348d1e153)"><path fill="#ff0000" d="M 342.347656 27.765625 C 337.003906 23.914062 330.59375 21.921875 324.210938 20.59375 C 315.230469 18.828125 306.035156 18.597656 296.914062 18.914062 C 279.945312 19.566406 263.121094 22.21875 246.519531 25.710938 C 233.355469 28.441406 220.292969 31.628906 207.34375 35.226562 C 198.601562 37.617188 189.90625 40.167969 181.273438 42.921875 C 172.078125 45.761719 163.007812 49.007812 154.203125 52.90625 C 145.21875 56.882812 136.28125 61.125 128.089844 66.589844 C 133.707031 64.492188 139.40625 62.925781 145.191406 61.191406 C 151.957031 59.257812 158.707031 57.265625 165.425781 55.171875 C 173.011719 52.835938 181.101562 49.996094 189.933594 47.363281 C 206.421875 42.402344 223.0625 37.90625 239.882812 34.214844 C 257.046875 30.421875 274.40625 27.238281 291.972656 26.160156 C 302.671875 25.433594 315.101562 25.589844 323.945312 27.445312 C 336.464844 29.96875 344.621094 34.976562 346.691406 41.121094 C 348.234375 45.890625 345.671875 52.886719 340.121094 60.65625 C 338.097656 63.464844 335.847656 66.117188 333.441406 68.605469 C 330.808594 71.402344 327.945312 73.964844 325.039062 76.472656 L 325.484375 76.085938 C 318.625 81.765625 311.210938 86.742188 303.539062 91.253906 C 284.050781 102.714844 263.007812 111.238281 241.652344 118.511719 C 210.574219 129.242188 175.804688 138.1875 141.21875 139.886719 C 120.988281 140.847656 96.769531 139.894531 81.410156 129.597656 C 73.808594 124.550781 70.582031 117.925781 70.269531 114.28125 C 69.894531 110.136719 70.53125 106.457031 74.160156 100.402344 C 76.152344 97.273438 78.621094 94.496094 81.203125 91.847656 C 84.117188 89.015625 84.894531 88.363281 88.007812 85.785156 C 102.554688 74.414062 119.277344 66.269531 136.128906 58.917969 C 156.910156 49.996094 176.664062 43.519531 197.457031 37.382812 C 208.257812 34.011719 220.941406 29.675781 233.050781 25.664062 C 234.574219 25.171875 236.097656 24.6875 237.636719 24.246094 C 237.472656 24.25 237.304688 24.253906 237.140625 24.261719 C 230.257812 24.582031 223.414062 25.519531 216.613281 26.59375 C 204.109375 28.558594 191.84375 31.738281 179.8125 35.625 C 169.183594 38.972656 158.667969 42.664062 148.277344 46.6875 C 123.765625 56.367188 79.214844 75.4375 68.503906 100.5 C 63.933594 111.367188 66.179688 122.816406 74.445312 131.234375 C 79.191406 136.046875 85.246094 139.390625 91.539062 141.714844 C 98.207031 144.152344 105.257812 145.332031 112.277344 146.1875 C 124.101562 147.539062 136.039062 147.339844 147.886719 146.476562 C 176.878906 144.335938 205.316406 137.554688 232.910156 128.589844 C 257.964844 120.472656 282.808594 111.089844 305.546875 97.636719 C 314.332031 92.445312 322.800781 86.660156 330.398438 79.816406 C 335.839844 74.90625 340.902344 69.476562 344.808594 63.242188 C 352.414062 51.699219 354.835938 36.96875 342.347656 27.765625 Z M 342.347656 27.765625 " fill-opacity="1" fill-rule="nonzero"/></g></g></g></g><g fill="#ffffff" fill-opacity="1"><g transform="translate(10.246479, 148.99669)"><g><path d="M 22.339844 -5.046875 C 22.167969 -5.707031 21.449219 -6.039062 20.78125 -5.753906 C 18.917969 -4.929688 17.207031 -4.21875 15.226562 -3.699219 L 10.464844 -2.449219 L 3.8125 -27.789062 C 3.660156 -28.378906 3.054688 -28.703125 2.429688 -28.539062 L -2.890625 -27.144531 C -3.515625 -26.976562 -3.882812 -26.398438 -3.726562 -25.808594 L 4.0625 3.875 C 4.21875 4.464844 4.824219 4.789062 5.449219 4.625 L 16.46875 1.734375 C 18.207031 1.277344 19.96875 0.777344 22.609375 -0.621094 C 23 -0.835938 23.289062 -1.433594 23.179688 -1.847656 Z M 11.53125 -14.097656 C 11.6875 -13.507812 12.292969 -13.183594 12.917969 -13.347656 C 15.769531 -14.09375 18.398438 -14.972656 20.726562 -16.289062 L 24.625 -1.449219 C 24.777344 -0.855469 25.347656 -0.523438 26.007812 -0.695312 L 31.292969 -2.082031 C 31.917969 -2.25 32.285156 -2.828125 32.128906 -3.417969 L 24.300781 -33.238281 C 24.148438 -33.832031 23.542969 -34.15625 22.917969 -33.992188 L 17.632812 -32.605469 C 16.972656 -32.429688 16.640625 -31.859375 16.796875 -31.269531 L 19.269531 -21.851562 C 16.816406 -20.425781 14.046875 -19.515625 11.476562 -18.839844 C 10.851562 -18.675781 10.480469 -18.09375 10.636719 -17.503906 Z M 11.53125 -14.097656 "/></g></g></g><g fill="#ffffff" fill-opacity="1"><g transform="translate(43.925995, 140.156038)"><g><path d="M -4.171875 -22.125 C -4.019531 -21.535156 -3.414062 -21.210938 -2.753906 -21.382812 L 6.457031 -23.800781 L 8.738281 -15.113281 C 10.261719 -9.308594 9.1875 -2.933594 2.796875 -0.660156 C 2.25 -0.480469 1.925781 0.125 2.066406 0.648438 L 2.957031 4.054688 C 3.113281 4.644531 3.761719 4.992188 4.378906 4.792969 C 15.75 1.402344 18.914062 -8.046875 16.511719 -17.632812 L 13.207031 -30.214844 C 13.054688 -30.808594 12.449219 -31.132812 11.820312 -30.96875 L -4.167969 -26.769531 C -4.828125 -26.597656 -5.195312 -26.015625 -5.039062 -25.425781 Z M 22.53125 -32.773438 C 22.375 -33.367188 21.769531 -33.691406 21.144531 -33.527344 L 15.828125 -32.128906 C 15.199219 -31.964844 14.832031 -31.386719 14.988281 -30.796875 L 22.824219 -0.9375 C 22.980469 -0.347656 23.585938 -0.0234375 24.210938 -0.1875 L 29.527344 -1.582031 C 30.152344 -1.75 30.523438 -2.328125 30.367188 -2.917969 L 26.828125 -16.402344 C 28.625 -16.914062 29.902344 -17.433594 30.707031 -17.90625 C 31.09375 -18.117188 31.316406 -18.695312 31.207031 -19.113281 L 30.175781 -23.042969 C 29.992188 -23.738281 29.238281 -24.058594 28.554688 -23.695312 C 27.679688 -23.203125 26.59375 -22.808594 25.25 -22.417969 Z M 22.53125 -32.773438 "/></g></g></g><g fill="#ffffff" fill-opacity="1"><g transform="translate(77.987842, 131.215026)"><g/></g></g><g fill="#ffffff" fill-opacity="1"><g transform="translate(87.476496, 128.724316)"><g><path d="M 5.964844 -21.144531 C 4.507812 -20.761719 4.082031 -21.246094 3.898438 -21.941406 L 3.644531 -22.914062 C 3.460938 -23.609375 3.59375 -24.238281 5.054688 -24.621094 L 7.105469 -25.160156 C 8.53125 -25.535156 8.988281 -25.058594 9.171875 -24.363281 L 9.425781 -23.390625 C 9.609375 -22.695312 9.441406 -22.058594 8.015625 -21.683594 Z M 11.886719 -17.273438 C 16.40625 -18.460938 17.890625 -21.152344 17.160156 -23.933594 L 16.191406 -27.617188 C 15.4375 -30.503906 12.847656 -32.015625 8.328125 -30.832031 L 1.167969 -28.949219 C -3.316406 -27.773438 -4.828125 -25.183594 -4.070312 -22.300781 L -3.101562 -18.617188 C -2.375 -15.835938 0.242188 -14.21875 4.726562 -15.394531 Z M 22.734375 -9.347656 C 22.890625 -8.757812 23.496094 -8.433594 24.121094 -8.597656 L 29.402344 -9.984375 C 30.03125 -10.148438 30.398438 -10.726562 30.242188 -11.320312 L 24.449219 -33.390625 C 24.292969 -33.980469 23.6875 -34.304688 23.0625 -34.140625 L 17.78125 -32.753906 C 17.15625 -32.589844 16.785156 -32.011719 16.941406 -31.417969 L 21.578125 -13.761719 L 15.5625 -12.183594 C 14.902344 -12.011719 14.535156 -11.429688 14.691406 -10.839844 L 15.191406 -8.929688 C 15.347656 -8.339844 15.953125 -8.015625 16.613281 -8.1875 L 22.625 -9.765625 Z M 12.46875 -7.84375 C 13.09375 -8.007812 13.460938 -8.585938 13.304688 -9.175781 L 12.539062 -12.097656 L 13.445312 -12.332031 C 15.042969 -12.753906 17.535156 -13.445312 19.59375 -14.246094 C 20.121094 -14.496094 20.429688 -15.023438 20.292969 -15.542969 L 19.734375 -17.664062 C 19.5625 -18.324219 18.949219 -18.683594 18.246094 -18.386719 C 16.050781 -17.550781 13.929688 -16.992188 12.398438 -16.59375 L -1.257812 -13.007812 C -1.886719 -12.84375 -2.253906 -12.261719 -2.097656 -11.671875 L -1.53125 -9.515625 C -1.378906 -8.925781 -0.773438 -8.601562 -0.144531 -8.765625 L 4.996094 -10.117188 L 5.765625 -7.195312 C 5.917969 -6.605469 6.523438 -6.28125 7.148438 -6.445312 Z M 25.660156 -0.605469 C 27.875 -1.222656 29.917969 -1.796875 31.730469 -2.683594 C 32.1875 -2.914062 32.476562 -3.511719 32.359375 -3.960938 L 31.484375 -7.296875 C 31.300781 -7.992188 30.59375 -8.289062 29.898438 -7.960938 C 28.3125 -7.207031 26.238281 -6.480469 24.570312 -6.039062 L 11.742188 -2.675781 L 10.988281 -5.558594 C 10.832031 -6.148438 10.261719 -6.484375 9.601562 -6.308594 L 4.28125 -4.914062 C 3.65625 -4.75 3.289062 -4.171875 3.445312 -3.578125 L 5.332031 3.617188 C 5.488281 4.207031 6.09375 4.53125 6.71875 4.367188 Z M 25.660156 -0.605469 "/></g></g></g><g fill="#ffffff" fill-opacity="1"><g transform="translate(121.156013, 119.883664)"><g><path d="M 8.566406 -27.660156 L 7.835938 -30.441406 C 7.679688 -31.03125 7.109375 -31.363281 6.449219 -31.191406 L 1.097656 -29.785156 C 0.472656 -29.621094 0.105469 -29.042969 0.257812 -28.453125 L 0.988281 -25.671875 L -4.191406 -24.3125 C -4.816406 -24.148438 -5.183594 -23.566406 -5.027344 -22.976562 L -4.160156 -19.675781 C -4.007812 -19.085938 -3.402344 -18.761719 -2.777344 -18.925781 L 14.671875 -23.503906 C 15.296875 -23.667969 15.664062 -24.25 15.511719 -24.839844 L 14.644531 -28.140625 C 14.488281 -28.730469 13.882812 -29.054688 13.257812 -28.890625 Z M 1.75 -0.273438 C 2.597656 2.960938 5.371094 4.609375 8.8125 3.707031 L 15.867188 1.851562 C 19.308594 0.949219 20.914062 -1.847656 20.066406 -5.082031 L 16.882812 -17.210938 C 16.003906 -20.546875 13.257812 -22.09375 9.820312 -21.191406 L 2.761719 -19.339844 C -0.679688 -18.433594 -2.3125 -15.738281 -1.433594 -12.402344 Z M 6.554688 -12.679688 C 6.160156 -14.175781 6.652344 -14.5625 7.417969 -14.765625 L 8.007812 -14.917969 C 8.773438 -15.121094 9.394531 -15.023438 9.785156 -13.527344 L 12.078125 -4.804688 C 12.449219 -3.378906 11.976562 -2.921875 11.210938 -2.71875 L 10.621094 -2.566406 C 9.855469 -2.363281 9.21875 -2.53125 8.84375 -3.957031 Z M 22.53125 -32.773438 C 22.375 -33.367188 21.769531 -33.691406 21.144531 -33.527344 L 15.828125 -32.128906 C 15.199219 -31.964844 14.832031 -31.386719 14.988281 -30.796875 L 22.824219 -0.9375 C 22.980469 -0.347656 23.585938 -0.0234375 24.210938 -0.1875 L 29.527344 -1.582031 C 30.152344 -1.75 30.523438 -2.328125 30.367188 -2.917969 L 27.09375 -15.394531 C 27.925781 -15.617188 30.105469 -16.371094 31.039062 -16.914062 C 31.429688 -17.128906 31.578125 -17.6875 31.480469 -18.070312 L 30.457031 -21.964844 C 30.265625 -22.695312 29.523438 -22.980469 28.835938 -22.617188 C 27.753906 -22.070312 26.953125 -21.863281 25.523438 -21.375 Z M 22.53125 -32.773438 "/></g></g></g><g fill="#ffffff" fill-opacity="1"><g transform="translate(155.217859, 110.942653)"><g><path d="M 3.671875 -27.898438 C 3.519531 -28.492188 2.914062 -28.8125 2.289062 -28.648438 L -3.066406 -27.246094 C -3.691406 -27.082031 -4.058594 -26.5 -3.902344 -25.910156 L -1.066406 -15.101562 C -0.910156 -14.511719 -0.304688 -14.1875 0.320312 -14.351562 L 26.457031 -21.210938 C 27.082031 -21.375 27.449219 -21.953125 27.296875 -22.546875 L 26.5 -25.570312 C 26.347656 -26.160156 25.742188 -26.484375 25.117188 -26.320312 L 5.445312 -21.15625 Z M -0.984375 -11.964844 C -1.613281 -11.800781 -1.980469 -11.21875 -1.824219 -10.628906 L -0.976562 -7.398438 C -0.820312 -6.804688 -0.214844 -6.480469 0.410156 -6.644531 L 30.058594 -14.429688 C 30.683594 -14.59375 31.050781 -15.171875 30.894531 -15.761719 L 30.046875 -18.996094 C 29.894531 -19.585938 29.289062 -19.910156 28.660156 -19.746094 Z M 25.488281 -0.558594 C 27.703125 -1.179688 29.746094 -1.753906 31.519531 -2.628906 C 31.980469 -2.859375 32.304688 -3.464844 32.1875 -3.917969 L 31.320312 -7.21875 C 31.136719 -7.914062 30.425781 -8.210938 29.734375 -7.878906 C 28.113281 -7.121094 26.039062 -6.390625 24.371094 -5.949219 L 10.363281 -2.273438 L 9.230469 -6.585938 C 9.078125 -7.175781 8.472656 -7.5 7.84375 -7.335938 L 2.527344 -5.9375 C 1.902344 -5.773438 1.535156 -5.195312 1.6875 -4.605469 L 3.941406 3.980469 C 4.097656 4.570312 4.703125 4.894531 5.328125 4.730469 Z M 25.488281 -0.558594 "/></g></g></g><g fill="#ffffff" fill-opacity="1"><g transform="translate(188.897376, 102.102)"><g/></g></g><g fill="#ffed00" fill-opacity="1"><g transform="translate(198.396054, 99.60866)"><g><path d="M 29.71875 -20.246094 C 29.5625 -20.839844 28.960938 -21.160156 28.332031 -20.996094 L 17.488281 -18.152344 L 17.132812 -19.507812 L 26.273438 -21.90625 C 26.898438 -22.070312 27.269531 -22.648438 27.113281 -23.242188 L 26.253906 -26.507812 C 26.101562 -27.097656 25.496094 -27.421875 24.871094 -27.257812 L 5.128906 -22.078125 L 4.746094 -23.535156 L 24.347656 -28.683594 C 24.972656 -28.847656 25.339844 -29.425781 25.1875 -30.015625 L 24.328125 -33.285156 C 24.171875 -33.875 23.566406 -34.199219 22.941406 -34.035156 L -3.054688 -27.210938 C -3.679688 -27.046875 -4.050781 -26.464844 -3.894531 -25.875 L -1.25 -15.796875 C -1.09375 -15.207031 -0.488281 -14.882812 0.136719 -15.046875 L 9.554688 -17.519531 L 9.914062 -16.164062 L -1.347656 -13.207031 C -1.972656 -13.042969 -2.34375 -12.460938 -2.1875 -11.871094 L -1.328125 -8.605469 C -1.175781 -8.011719 -0.570312 -7.691406 0.0546875 -7.855469 L 29.738281 -15.644531 C 30.363281 -15.808594 30.730469 -16.390625 30.578125 -16.980469 Z M 31.296875 -9.851562 C 30.363281 -12.984375 26.335938 -13.75 23.449219 -12.992188 L 6.941406 -8.65625 C 3.875 -7.742188 0.792969 -5.1875 1.613281 -2.058594 L 2.261719 0.410156 C 3.242188 3.570312 7.152344 4.328125 10.144531 3.542969 L 26.652344 -0.792969 C 29.753906 -1.71875 32.785156 -4.183594 31.945312 -7.382812 Z M 24.292969 -6.671875 C 24.410156 -6.222656 24.160156 -5.894531 22.492188 -5.457031 L 11.542969 -2.585938 C 9.875 -2.148438 9.464844 -2.296875 9.347656 -2.75 C 9.210938 -3.273438 9.511719 -3.535156 11.179688 -3.976562 L 22.128906 -6.847656 C 23.796875 -7.285156 24.15625 -7.195312 24.292969 -6.671875 Z M 24.292969 -6.671875 "/></g></g></g><g fill="#ffed00" fill-opacity="1"><g transform="translate(232.07557, 90.768007)"><g><path d="M 1.679688 -0.253906 C 2.527344 2.976562 5.300781 4.628906 8.742188 3.722656 L 15.761719 1.882812 C 19.238281 0.96875 20.84375 -1.832031 19.996094 -5.0625 L 14.484375 -26.054688 C 13.609375 -29.394531 10.863281 -30.9375 7.386719 -30.027344 L 0.367188 -28.183594 C -3.074219 -27.28125 -4.707031 -24.585938 -3.832031 -21.25 Z M 4.15625 -21.523438 C 3.765625 -23.019531 4.257812 -23.410156 5.023438 -23.609375 L 5.578125 -23.753906 C 6.378906 -23.964844 6.996094 -23.867188 7.390625 -22.375 L 12.007812 -4.785156 C 12.382812 -3.363281 11.90625 -2.902344 11.109375 -2.691406 L 10.550781 -2.546875 C 9.785156 -2.347656 9.148438 -2.511719 8.773438 -3.9375 Z M 22.53125 -32.773438 C 22.375 -33.367188 21.769531 -33.691406 21.144531 -33.527344 L 15.828125 -32.128906 C 15.199219 -31.964844 14.832031 -31.386719 14.988281 -30.796875 L 22.824219 -0.9375 C 22.980469 -0.347656 23.585938 -0.0234375 24.210938 -0.1875 L 29.527344 -1.582031 C 30.152344 -1.75 30.523438 -2.328125 30.367188 -2.917969 L 26.828125 -16.402344 C 28.625 -16.914062 29.902344 -17.433594 30.707031 -17.90625 C 31.09375 -18.117188 31.316406 -18.695312 31.207031 -19.113281 L 30.175781 -23.042969 C 29.992188 -23.738281 29.238281 -24.058594 28.554688 -23.695312 C 27.679688 -23.203125 26.59375 -22.808594 25.25 -22.417969 Z M 22.53125 -32.773438 "/></g></g></g><g fill="#ffed00" fill-opacity="1"><g transform="translate(266.137417, 81.826996)"><g><path d="M 24.023438 -33.167969 C 23.871094 -33.757812 23.265625 -34.082031 22.640625 -33.917969 L 17.355469 -32.53125 C 16.730469 -32.367188 16.363281 -31.789062 16.515625 -31.195312 L 23.140625 -5.960938 C 22.847656 -6.367188 22.253906 -6.511719 21.699219 -6.214844 C 19.871094 -5.253906 17.824219 -4.417969 16.539062 -4.082031 L 10.316406 -2.449219 L 8.074219 -11 L 17.074219 -13.363281 C 17.699219 -13.527344 18.070312 -14.105469 17.914062 -14.695312 L 13.789062 -30.40625 C 13.632812 -30.996094 13.027344 -31.320312 12.402344 -31.15625 L -3.132812 -27.078125 C -3.792969 -26.90625 -4.160156 -26.324219 -4.007812 -25.734375 L -3.128906 -22.398438 C -2.976562 -21.808594 -2.371094 -21.484375 -1.710938 -21.65625 L 7.363281 -24.039062 L 9.214844 -16.980469 L 0.246094 -14.628906 C -0.378906 -14.464844 -0.746094 -13.882812 -0.589844 -13.292969 L 3.914062 3.875 C 4.070312 4.46875 4.675781 4.792969 5.300781 4.628906 L 17.464844 1.433594 C 19.855469 0.769531 21.683594 -0.046875 23.632812 -1.113281 C 23.929688 -1.265625 24.117188 -1.539062 24.191406 -1.964844 L 24.34375 -1.375 C 24.5 -0.785156 25.105469 -0.460938 25.730469 -0.625 L 31.015625 -2.011719 C 31.640625 -2.175781 32.007812 -2.753906 31.851562 -3.34375 Z M 24.023438 -33.167969 "/></g></g></g><g fill="#ffffff" fill-opacity="1"><g transform="translate(299.843133, 72.979466)"><g><path d="M -3.230469 -27.164062 C -3.855469 -27 -4.222656 -26.421875 -4.066406 -25.832031 L -3.621094 -24.128906 C -3.464844 -23.535156 -2.859375 -23.210938 -2.234375 -23.375 L 17.507812 -28.558594 L 17.714844 -27.757812 L -1.851562 -22.621094 C -2.476562 -22.457031 -2.84375 -21.878906 -2.691406 -21.289062 L -1.09375 -15.207031 C -0.9375 -14.613281 -0.332031 -14.289062 0.292969 -14.453125 L 26.535156 -21.34375 C 27.160156 -21.507812 27.527344 -22.085938 27.371094 -22.675781 L 26.90625 -24.449219 C 26.753906 -25.039062 26.148438 -25.363281 25.519531 -25.199219 L 5.710938 -20 L 5.5 -20.800781 L 25.066406 -25.9375 C 25.695312 -26.101562 26.0625 -26.679688 25.90625 -27.269531 L 24.328125 -33.285156 C 24.171875 -33.875 23.566406 -34.199219 22.941406 -34.035156 Z M -1.269531 -13.042969 C -1.894531 -12.878906 -2.261719 -12.296875 -2.105469 -11.707031 L -1.449219 -9.203125 C -1.296875 -8.613281 -0.691406 -8.289062 -0.0625 -8.453125 L 29.582031 -16.234375 C 30.210938 -16.398438 30.578125 -16.980469 30.421875 -17.570312 L 29.765625 -20.074219 C 29.609375 -20.664062 29.003906 -20.988281 28.378906 -20.824219 Z M 25.765625 -0.632812 C 27.574219 -1.109375 29.996094 -1.78125 31.6875 -2.410156 C 32.253906 -2.671875 32.558594 -3.195312 32.421875 -3.71875 L 31.949219 -5.527344 C 31.777344 -6.1875 31.09375 -6.527344 30.425781 -6.238281 C 28.679688 -5.523438 26.550781 -5 24.953125 -4.582031 L 10.738281 -0.847656 L 10.535156 -1.613281 L 30.105469 -6.75 C 30.730469 -6.914062 31.097656 -7.496094 30.941406 -8.085938 L 29.363281 -14.097656 C 29.210938 -14.6875 28.605469 -15.011719 27.980469 -14.847656 L 1.804688 -7.980469 C 1.179688 -7.816406 0.8125 -7.234375 0.96875 -6.644531 L 1.414062 -4.941406 C 1.570312 -4.351562 2.175781 -4.027344 2.800781 -4.191406 L 22.542969 -9.371094 L 22.753906 -8.574219 L 3.183594 -3.4375 C 2.558594 -3.273438 2.191406 -2.691406 2.347656 -2.101562 L 3.941406 3.980469 C 4.097656 4.570312 4.703125 4.894531 5.328125 4.730469 Z M 25.765625 -0.632812 "/></g></g></g><g fill="#ffffff" fill-opacity="1"><g transform="translate(333.522649, 64.138814)"><g/></g></g><g fill="#ffffff" fill-opacity="1"><g transform="translate(343.011303, 61.648104)"><g><path d="M 7.550781 -15.246094 C 10.113281 -13.132812 13.980469 -12.699219 17.382812 -13.183594 C 18.140625 -13.269531 18.53125 -13.894531 18.359375 -14.554688 L 17.382812 -18.273438 C 17.273438 -18.6875 16.730469 -19.066406 16.25 -19.050781 C 12.421875 -19.050781 10.597656 -20.910156 9.472656 -23.921875 L 14.164062 -25.15625 C 14.789062 -25.320312 15.160156 -25.898438 15.003906 -26.488281 L 14.144531 -29.757812 C 13.992188 -30.347656 13.386719 -30.671875 12.761719 -30.507812 L 7.929688 -29.238281 L 7.4375 -31.117188 C 7.28125 -31.707031 6.675781 -32.03125 6.050781 -31.867188 L 0.59375 -30.433594 C -0.0664062 -30.261719 -0.402344 -29.691406 -0.246094 -29.101562 L 0.246094 -27.222656 L -4.898438 -25.871094 C -5.523438 -25.707031 -5.890625 -25.128906 -5.734375 -24.539062 L -4.878906 -21.269531 C -4.722656 -20.679688 -4.117188 -20.355469 -3.492188 -20.519531 L 1.445312 -21.816406 C 1.902344 -18.371094 1.042969 -15.988281 -2.308594 -14.179688 C -2.734375 -13.957031 -2.988281 -13.371094 -2.878906 -12.953125 L -1.902344 -9.234375 C -1.730469 -8.574219 -1.082031 -8.222656 -0.378906 -8.519531 C 3.125 -9.886719 6.160156 -12.058594 7.550781 -15.246094 Z M 22.566406 -32.785156 C 22.410156 -33.375 21.839844 -33.707031 21.179688 -33.535156 L 15.859375 -32.140625 C 15.234375 -31.972656 14.867188 -31.394531 15.023438 -30.804688 L 19.285156 -14.574219 C 19.4375 -13.980469 20.042969 -13.65625 20.667969 -13.820312 L 25.988281 -15.21875 C 26.648438 -15.390625 26.980469 -15.960938 26.824219 -16.550781 L 25.402344 -21.972656 L 25.574219 -22.019531 C 26.269531 -22.203125 29.03125 -23.296875 29.316406 -23.484375 C 29.695312 -23.734375 29.855469 -24.257812 29.753906 -24.640625 L 28.734375 -28.53125 C 28.542969 -29.261719 27.796875 -29.550781 27.113281 -29.183594 C 25.996094 -28.632812 25.320312 -28.378906 23.832031 -27.953125 Z M 16.296875 -2.308594 C 20.652344 -0.441406 25.628906 -0.449219 30.070312 -1.503906 C 30.695312 -1.667969 31.097656 -2.257812 30.941406 -2.847656 L 30.140625 -5.90625 C 29.996094 -6.460938 29.390625 -6.785156 28.789062 -6.664062 C 25.796875 -6.027344 22.6875 -5.992188 20.132812 -7.367188 L 27.609375 -9.328125 C 28.269531 -9.5 28.636719 -10.082031 28.480469 -10.671875 L 27.6875 -13.695312 C 27.53125 -14.285156 26.925781 -14.609375 26.265625 -14.4375 L 1.519531 -7.941406 C 0.894531 -7.777344 0.527344 -7.195312 0.679688 -6.605469 L 1.472656 -3.582031 C 1.628906 -2.992188 2.234375 -2.667969 2.859375 -2.832031 L 10.542969 -4.847656 C 8.828125 -2.316406 6.054688 -0.847656 3.242188 0.0390625 C 2.660156 0.230469 2.292969 0.808594 2.4375 1.367188 L 3.242188 4.425781 C 3.398438 5.015625 4.035156 5.332031 4.664062 5.167969 C 9.292969 3.839844 13.59375 1.261719 16.296875 -2.308594 Z M 16.296875 -2.308594 "/></g></g></g><g fill="#ffffff" fill-opacity="1"><g transform="translate(377.07315, 52.707093)"><g><path d="M 1.679688 -0.253906 C 2.527344 2.976562 5.300781 4.628906 8.742188 3.722656 L 15.761719 1.882812 C 19.238281 0.96875 20.84375 -1.832031 19.996094 -5.0625 L 14.484375 -26.054688 C 13.609375 -29.394531 10.863281 -30.9375 7.386719 -30.027344 L 0.367188 -28.183594 C -3.074219 -27.28125 -4.707031 -24.585938 -3.832031 -21.25 Z M 4.15625 -21.523438 C 3.765625 -23.019531 4.257812 -23.410156 5.023438 -23.609375 L 5.578125 -23.753906 C 6.378906 -23.964844 6.996094 -23.867188 7.390625 -22.375 L 12.007812 -4.785156 C 12.382812 -3.363281 11.90625 -2.902344 11.109375 -2.691406 L 10.550781 -2.546875 C 9.785156 -2.347656 9.148438 -2.511719 8.773438 -3.9375 Z M 22.53125 -32.773438 C 22.375 -33.367188 21.769531 -33.691406 21.144531 -33.527344 L 15.828125 -32.128906 C 15.199219 -31.964844 14.832031 -31.386719 14.988281 -30.796875 L 22.824219 -0.9375 C 22.980469 -0.347656 23.585938 -0.0234375 24.210938 -0.1875 L 29.527344 -1.582031 C 30.152344 -1.75 30.523438 -2.328125 30.367188 -2.917969 L 26.828125 -16.402344 C 28.625 -16.914062 29.902344 -17.433594 30.707031 -17.90625 C 31.09375 -18.117188 31.316406 -18.695312 31.207031 -19.113281 L 30.175781 -23.042969 C 29.992188 -23.738281 29.238281 -24.058594 28.554688 -23.695312 C 27.679688 -23.203125 26.59375 -22.808594 25.25 -22.417969 Z M 22.53125 -32.773438 "/></g></g></g><g fill="#ffffff" fill-opacity="1"><g transform="translate(411.134997, 43.766081)"><g><path d="M 7.824219 -6.289062 C 7.199219 -6.125 6.828125 -5.546875 6.984375 -4.953125 L 7.796875 -1.859375 L 2.375 -0.4375 C 1.75 -0.273438 1.378906 0.304688 1.535156 0.898438 L 2.402344 4.199219 C 2.558594 4.789062 3.164062 5.113281 3.789062 4.949219 L 19.429688 0.84375 C 20.890625 0.460938 22.285156 -0.164062 23.488281 -0.816406 C 23.746094 -0.402344 24.210938 -0.1875 24.765625 -0.332031 L 30.050781 -1.722656 C 30.675781 -1.886719 31.042969 -2.464844 30.886719 -3.054688 L 27.53125 -15.847656 L 29.511719 -16.515625 C 30.160156 -16.722656 30.785156 -17.035156 31.332031 -17.363281 C 31.675781 -17.601562 31.871094 -18.136719 31.769531 -18.519531 L 30.75 -22.410156 C 30.558594 -23.140625 29.8125 -23.429688 29.09375 -23.054688 C 28.167969 -22.625 27.125 -22.203125 25.953125 -21.859375 L 23.050781 -32.910156 C 22.894531 -33.503906 22.292969 -33.828125 21.664062 -33.664062 L 16.382812 -32.277344 C 15.757812 -32.113281 15.390625 -31.53125 15.542969 -30.941406 L 22.03125 -6.230469 C 21.125 -5.582031 19.613281 -4.960938 18.257812 -4.605469 L 15.234375 -3.8125 L 14.421875 -6.90625 C 14.265625 -7.496094 13.664062 -7.820312 13.035156 -7.65625 Z M 7.636719 -7.28125 C 8.507812 -7.507812 10.128906 -8.121094 11.488281 -9.035156 C 11.640625 -8.441406 12.199219 -8.292969 12.828125 -8.457031 L 18.109375 -9.84375 C 18.734375 -10.007812 19.101562 -10.585938 18.949219 -11.179688 L 13.902344 -30.398438 C 13.746094 -30.988281 13.144531 -31.3125 12.515625 -31.148438 L 7.234375 -29.761719 C 6.609375 -29.597656 6.242188 -29.019531 6.394531 -28.429688 L 7.507812 -24.1875 L 4.066406 -23.285156 L 2.953125 -27.523438 C 2.800781 -28.117188 2.230469 -28.449219 1.570312 -28.277344 L -3.75 -26.878906 C -4.375 -26.714844 -4.742188 -26.136719 -4.585938 -25.546875 L 0.410156 -6.5 C 0.566406 -5.90625 1.171875 -5.582031 1.796875 -5.746094 Z M 10.089844 -14.351562 C 9.253906 -13.722656 8.105469 -13.273438 6.796875 -12.890625 L 5.480469 -17.898438 L 8.921875 -18.800781 Z M 10.089844 -14.351562 "/></g></g></g></svg>