<svg xmlns="http://www.w3.org/2000/svg" xmlns:xlink="http://www.w3.org/1999/xlink" width="700" zoomAndPan="magnify" viewBox="0 0 525 299.999988" height="400" preserveAspectRatio="xMidYMid meet" version="1.0"><defs><g/></defs><g fill="#ffed00" fill-opacity="1"><g transform="translate(22.819766, 268.757479)"><g><path d="M 148.027344 -103.277344 C 147.214844 -106.234375 144.160156 -107.824219 141.027344 -106.964844 L 86.761719 -92.074219 L 84.902344 -98.859375 L 130.644531 -111.410156 C 133.777344 -112.269531 135.589844 -115.199219 134.777344 -118.15625 L 130.292969 -134.507812 C 129.480469 -137.460938 126.425781 -139.054688 123.292969 -138.195312 L 24.503906 -111.085938 L 22.496094 -118.390625 L 120.59375 -145.3125 C 123.726562 -146.167969 125.539062 -149.097656 124.726562 -152.054688 L 120.242188 -168.40625 C 119.429688 -171.363281 116.375 -172.953125 113.242188 -172.097656 L -16.855469 -136.394531 C -19.988281 -135.535156 -21.800781 -132.605469 -20.988281 -129.648438 L -7.148438 -79.207031 C -6.335938 -76.253906 -3.28125 -74.660156 -0.152344 -75.519531 L 46.984375 -88.453125 L 48.847656 -81.667969 L -7.507812 -66.207031 C -10.636719 -65.347656 -12.453125 -62.417969 -11.640625 -59.460938 L -7.15625 -43.109375 C -6.34375 -40.152344 -3.289062 -38.5625 -0.15625 -39.421875 L 148.378906 -80.179688 C 151.511719 -81.039062 153.324219 -83.96875 152.511719 -86.925781 Z M 156.523438 -51.183594 C 151.660156 -66.867188 131.40625 -70.472656 116.96875 -66.511719 L 34.351562 -43.839844 C 19.015625 -39.070312 3.691406 -26.074219 7.988281 -10.421875 L 11.375 1.929688 C 16.464844 17.738281 36.148438 21.3125 51.105469 17.210938 L 133.722656 -5.460938 C 149.234375 -10.28125 164.304688 -22.832031 159.914062 -38.832031 Z M 121.542969 -34.851562 C 122.164062 -32.589844 120.933594 -30.941406 112.585938 -28.652344 L 57.796875 -13.617188 C 49.445312 -11.324219 47.375 -12.066406 46.753906 -14.328125 C 46.039062 -16.933594 47.539062 -18.28125 55.886719 -20.574219 L 110.675781 -35.609375 C 119.023438 -37.898438 120.828125 -37.460938 121.542969 -34.851562 Z M 121.542969 -34.851562 "/></g></g></g><g fill="#ffed00" fill-opacity="1"><g transform="translate(191.352579, 222.508771)"><g><path d="M 8.414062 -1.375 C 12.851562 14.800781 26.863281 22.925781 44.082031 18.203125 L 79.21875 8.558594 C 96.609375 3.785156 104.511719 -10.351562 100.074219 -26.527344 L 71.246094 -131.582031 C 66.664062 -148.277344 52.792969 -155.882812 35.402344 -151.109375 L 0.269531 -141.46875 C -16.953125 -136.742188 -24.996094 -123.125 -20.414062 -106.425781 Z M 19.667969 -108.261719 C 17.613281 -115.742188 20.0625 -117.722656 23.890625 -118.773438 L 26.671875 -119.535156 C 30.671875 -120.632812 33.789062 -120.179688 35.839844 -112.703125 L 59.992188 -24.691406 C 61.949219 -17.5625 59.597656 -15.230469 55.597656 -14.132812 L 52.8125 -13.371094 C 48.988281 -12.320312 45.773438 -13.121094 43.816406 -20.253906 Z M 111.246094 -165.75 C 110.433594 -168.707031 107.378906 -170.300781 104.246094 -169.441406 L 77.636719 -162.136719 C 74.503906 -161.277344 72.691406 -158.347656 73.503906 -155.390625 L 114.503906 -5.984375 C 115.3125 -3.027344 118.367188 -1.4375 121.5 -2.296875 L 148.109375 -9.597656 C 151.242188 -10.457031 153.054688 -13.386719 152.246094 -16.34375 L 133.726562 -83.828125 C 142.722656 -86.484375 149.09375 -89.167969 153.105469 -91.578125 C 155.050781 -92.671875 156.121094 -95.585938 155.550781 -97.671875 L 150.15625 -117.328125 C 149.203125 -120.804688 145.402344 -122.382812 141.988281 -120.507812 C 137.625 -118.003906 132.203125 -115.953125 125.46875 -113.917969 Z M 111.246094 -165.75 "/></g></g></g><g fill="#ffed00" fill-opacity="1"><g transform="translate(361.798582, 175.735046)"><g><path d="M 118.722656 -167.800781 C 117.914062 -170.757812 114.855469 -172.351562 111.726562 -171.492188 L 85.289062 -164.238281 C 82.15625 -163.378906 80.34375 -160.449219 81.15625 -157.492188 L 115.808594 -31.21875 C 114.316406 -33.242188 111.324219 -33.917969 108.558594 -32.410156 C 99.441406 -27.476562 89.210938 -23.171875 82.777344 -21.40625 L 51.644531 -12.863281 L 39.902344 -55.648438 L 84.949219 -68.011719 C 88.082031 -68.871094 89.894531 -71.800781 89.082031 -74.757812 L 67.511719 -153.375 C 66.699219 -156.332031 63.644531 -157.921875 60.511719 -157.0625 L -17.234375 -135.730469 C -20.539062 -134.820312 -22.355469 -131.894531 -21.542969 -128.9375 L -16.960938 -112.238281 C -16.148438 -109.28125 -13.09375 -107.6875 -9.789062 -108.597656 L 35.605469 -121.054688 L 45.296875 -85.746094 L 0.421875 -73.429688 C -2.707031 -72.570312 -4.523438 -69.644531 -3.710938 -66.6875 L 19.867188 19.234375 C 20.679688 22.191406 23.734375 23.785156 26.863281 22.925781 L 87.742188 6.222656 C 99.695312 2.753906 108.832031 -1.4375 118.550781 -6.910156 C 120.019531 -7.6875 120.953125 -9.066406 121.296875 -11.214844 L 122.105469 -8.261719 C 122.917969 -5.304688 125.972656 -3.710938 129.105469 -4.570312 L 155.542969 -11.824219 C 158.671875 -12.683594 160.488281 -15.613281 159.675781 -18.570312 Z M 118.722656 -167.800781 "/></g></g></g></svg>