<svg xmlns="http://www.w3.org/2000/svg" xmlns:xlink="http://www.w3.org/1999/xlink" width="500" zoomAndPan="magnify" viewBox="0 0 375 187.499995" height="250" preserveAspectRatio="xMidYMid meet" version="1.0"><defs><g/><clipPath id="0e1aabb825"><path d="M 0.5 77 L 99 77 L 99 185 L 0.5 185 Z M 0.5 77 " clip-rule="nonzero"/></clipPath><clipPath id="8ca334dc13"><path d="M 311 0 L 374.5 0 L 374.5 101 L 311 101 Z M 311 0 " clip-rule="nonzero"/></clipPath></defs><g clip-path="url(#0e1aabb825)"><g fill="#ffffff" fill-opacity="1"><g transform="translate(11.403149, 170.921948)"><g><path d="M 7.308594 -1.515625 C 9.707031 7.15625 17.230469 11.5 26.460938 8.949219 L 45.300781 3.746094 C 54.625 1.171875 58.851562 -6.421875 56.457031 -15.09375 L 50.300781 -37.382812 C 52.671875 -38.238281 54.621094 -39.179688 56.398438 -40.371094 L 66.242188 -4.746094 C 66.679688 -3.164062 68.226562 -2.285156 70 -2.773438 L 84.171875 -6.691406 C 85.851562 -7.152344 86.824219 -8.726562 86.386719 -10.3125 L 64.28125 -90.328125 C 63.84375 -91.914062 62.203125 -92.765625 60.523438 -92.300781 L 46.347656 -88.386719 C 44.578125 -87.898438 43.699219 -86.347656 44.136719 -84.765625 L 52.097656 -55.945312 C 49.945312 -54.648438 48.089844 -53.734375 46.023438 -52.863281 L 40.898438 -71.421875 C 38.421875 -80.375 30.976562 -84.441406 21.652344 -81.863281 L 2.8125 -76.660156 C -6.421875 -74.109375 -10.722656 -66.796875 -8.25 -57.84375 Z M 13.25 -58.867188 C 12.140625 -62.875 13.453125 -63.941406 15.503906 -64.507812 L 16.996094 -64.921875 C 19.140625 -65.511719 20.8125 -65.273438 21.921875 -61.261719 L 34.957031 -14.074219 C 36.015625 -10.25 34.753906 -9 32.609375 -8.40625 L 31.117188 -7.992188 C 29.066406 -7.425781 27.339844 -7.855469 26.285156 -11.675781 Z M 13.25 -58.867188 "/></g></g></g></g><g fill="#ffffff" fill-opacity="1"><g transform="translate(101.763305, 145.960441)"><g><path d="M 34.191406 -69.167969 L 38.667969 -70.40625 C 40.441406 -70.894531 41.410156 -72.46875 40.972656 -74.054688 L 38.5 -83.007812 C 38.0625 -84.589844 36.421875 -85.441406 34.648438 -84.953125 L -11.140625 -72.304688 C -12.820312 -71.839844 -13.789062 -70.269531 -13.351562 -68.683594 L -0.855469 -23.453125 C -0.417969 -21.867188 1.222656 -21.015625 2.898438 -21.476562 L 40.390625 -31.835938 C 44.679688 -33.019531 49.742188 -34.316406 53.199219 -35.976562 C 54.613281 -36.667969 55.238281 -38.042969 54.851562 -39.441406 L 52.480469 -48.023438 C 51.992188 -49.792969 50.46875 -50.578125 48.535156 -49.945312 C 45.976562 -49.035156 43.203125 -48.171875 40.21875 -47.347656 Z M 14.609375 -63.757812 L 20.636719 -41.9375 L 15.878906 -40.621094 L 9.851562 -62.445312 Z M 41.496094 -54.722656 C 41.933594 -53.140625 43.574219 -52.289062 45.34375 -52.777344 C 48.421875 -53.625 50.4375 -54.6875 52.734375 -55.820312 L 59.714844 -30.546875 C 60.152344 -28.964844 61.792969 -28.113281 63.472656 -28.574219 L 77.742188 -32.515625 C 79.421875 -32.980469 80.390625 -34.554688 79.953125 -36.140625 L 64.90625 -90.601562 C 64.46875 -92.1875 62.828125 -93.039062 61.152344 -92.574219 L 46.882812 -88.632812 C 45.203125 -88.171875 44.234375 -86.597656 44.671875 -85.011719 L 48.535156 -71.023438 C 45.824219 -69.570312 43.597656 -68.554688 41.171875 -67.882812 C 39.398438 -67.394531 38.429688 -65.820312 38.867188 -64.238281 Z M 69.160156 -2.542969 C 75.101562 -4.285156 80.578125 -5.898438 85.425781 -8.339844 C 86.652344 -8.980469 87.410156 -10.597656 87.074219 -11.808594 L 84.601562 -20.761719 C 84.085938 -22.625 82.167969 -23.402344 80.3125 -22.488281 C 76.066406 -20.410156 70.507812 -18.375 66.03125 -17.136719 L 32.832031 -7.964844 L 28.683594 -22.980469 C 28.246094 -24.566406 26.605469 -25.417969 24.925781 -24.953125 L 10.65625 -21.011719 C 8.980469 -20.546875 8.007812 -18.976562 8.445312 -17.390625 L 15.789062 9.1875 C 16.226562 10.773438 17.867188 11.625 19.546875 11.164062 Z M 69.160156 -2.542969 "/></g></g></g><g fill="#ffffff" fill-opacity="1"><g transform="translate(192.123461, 120.998933)"><g><path d="M 41.304688 -8.902344 C 40.789062 -10.765625 38.75 -11.609375 36.828125 -10.574219 C 33.929688 -9.070312 30.972656 -8.152344 28.082031 -7.355469 L 24.070312 -6.246094 L 8.664062 -62.015625 L 20.882812 -65.390625 C 22.558594 -65.855469 23.53125 -67.429688 23.09375 -69.011719 L 20.621094 -77.964844 C 20.183594 -79.550781 18.542969 -80.402344 16.863281 -79.941406 L -12.140625 -71.925781 C -13.914062 -71.4375 -14.882812 -69.863281 -14.445312 -68.28125 L 7.425781 10.898438 C 7.863281 12.480469 9.503906 13.332031 11.277344 12.84375 L 31.609375 7.226562 C 35.898438 6.042969 39.109375 4.953125 42.101562 3.425781 C 43.328125 2.785156 44.113281 1.265625 43.777344 0.0507812 Z M 44.976562 -84.996094 C 44.539062 -86.582031 42.898438 -87.433594 41.21875 -86.96875 L 27.695312 -83.234375 C 25.925781 -82.746094 24.953125 -81.171875 25.390625 -79.585938 L 33.351562 -50.769531 C 29.652344 -48.542969 25.847656 -46.6875 21.929688 -45.605469 C 20.253906 -45.140625 19.28125 -43.570312 19.71875 -41.984375 L 22.449219 -32.097656 C 22.886719 -30.511719 24.527344 -29.660156 26.207031 -30.125 C 30.683594 -31.363281 34.445312 -33.003906 37.707031 -35.007812 L 47.496094 0.429688 C 47.933594 2.015625 49.574219 2.867188 51.347656 2.378906 L 64.867188 -1.359375 C 66.546875 -1.820312 67.519531 -3.394531 67.082031 -4.980469 Z M 69.972656 -5.777344 C 70.410156 -4.191406 72.050781 -3.339844 73.726562 -3.804688 L 87.25 -7.539062 C 88.929688 -8.003906 89.898438 -9.578125 89.460938 -11.164062 L 67.359375 -91.179688 C 66.921875 -92.765625 65.28125 -93.617188 63.601562 -93.152344 L 50.078125 -89.417969 C 48.398438 -88.953125 47.429688 -87.378906 47.867188 -85.792969 Z M 69.972656 -5.777344 "/></g></g></g><g fill="#ffffff" fill-opacity="1"><g transform="translate(282.483617, 96.037425)"><g><path d="M 15.460938 -74.835938 C 15.117188 -76.445312 13.332031 -77.457031 11.652344 -76.996094 L -4.667969 -72.488281 C -6.4375 -71.996094 -7.476562 -70.304688 -6.945312 -68.746094 L 11.59375 -14.34375 C 12.101562 -12.878906 13.742188 -12.027344 15.328125 -12.464844 L 25.398438 -15.246094 C 26.984375 -15.683594 27.980469 -17.164062 27.660156 -18.683594 Z M 15.898438 11.769531 C 16.335938 13.355469 17.976562 14.207031 19.65625 13.742188 L 34.578125 9.621094 C 36.347656 9.128906 37.226562 7.582031 36.789062 5.996094 L 33.15625 -7.152344 C 32.71875 -8.738281 31.171875 -9.613281 29.398438 -9.125 L 14.476562 -5.003906 C 12.796875 -4.539062 11.828125 -2.964844 12.265625 -1.382812 Z M 15.898438 11.769531 "/></g></g></g><g clip-path="url(#8ca334dc13)"><g fill="#ffffff" fill-opacity="1"><g transform="translate(326.404804, 83.904433)"><g><path d="M 43.761719 -59.96875 C 39.921875 -73.863281 25.554688 -81.539062 11.195312 -77.570312 C -2.515625 -73.785156 -10.910156 -60.925781 -8.28125 -48.503906 C -7.882812 -46.707031 -6.335938 -45.828125 -4.472656 -46.34375 L 8.863281 -50.027344 C 10.355469 -50.4375 11.261719 -51.894531 11.152344 -53.371094 C 10.375 -58.375 11.746094 -61.761719 15.289062 -62.742188 C 19.300781 -63.851562 22.652344 -61.164062 24.300781 -55.195312 C 25.898438 -49.414062 22.835938 -44.148438 21.179688 -38.875 C 18.988281 -31.542969 15.835938 -25.152344 18.128906 -16.851562 C 18.566406 -15.265625 20.207031 -14.414062 21.980469 -14.90625 L 35.316406 -18.589844 C 36.996094 -19.050781 37.964844 -20.625 37.527344 -22.210938 C 35.851562 -28.273438 40.523438 -37.894531 42.335938 -43.3125 C 44.714844 -50.695312 44.996094 -55.492188 43.761719 -59.96875 Z M 24.476562 9.398438 C 24.917969 10.984375 26.554688 11.835938 28.234375 11.371094 L 43.15625 7.25 C 44.929688 6.761719 45.804688 5.214844 45.367188 3.628906 L 41.734375 -9.523438 C 41.296875 -11.105469 39.75 -11.984375 37.976562 -11.496094 L 23.058594 -7.375 C 21.378906 -6.910156 20.40625 -5.335938 20.84375 -3.75 Z M 24.476562 9.398438 "/></g></g></g></g></svg>